<svg version="1.1" xmlns="http://www.w3.org/2000/svg" xmlns:xlink="http://www.w3.org/1999/xlink" x="0px" y="0px" viewBox="0 0 1000 1000" enable-background="new 0 0 1000 1000" xml:space="preserve" id="login">
<g><path d="M500,544.5c-124,0-224.6-99.7-224.6-222.7C275.4,198.7,376,99,500,99c124,0,224.6,99.8,224.6,222.7C724.6,444.8,624,544.5,500,544.5L500,544.5L500,544.5z M500,10c-173.6,0-314.4,139.6-314.4,311.9c0,172.2,140.8,311.8,314.4,311.8c173.7,0,314.4-139.6,314.4-311.8C814.4,149.6,673.6,10,500,10L500,10L500,10z M500,544.5C251.9,544.5,50.8,744,50.8,990h89.8c0-196.8,160.9-356.4,359.4-356.4S859.3,793.2,859.3,990h89.9C949.2,744,748.1,544.5,500,544.5L500,544.5L500,544.5z"/></g>
</svg>