<svg version="1.1" xmlns="http://www.w3.org/2000/svg" xmlns:xlink="http://www.w3.org/1999/xlink" x="0px" y="0px" viewBox="0 0 1000 1000" enable-background="new 0 0 1000 1000" xml:space="preserve" id="search" fill="#aaa">
<g><path d="M981.1,937.9l-280-280c-0.7-0.7-1.5-1.5-2.3-2.1c60.8-70.8,94-160.1,94-254.4c0-104.5-40.7-202.8-114.6-276.7C604.2,50.7,505.9,10,401.4,10S198.5,50.7,124.6,124.6C50.7,198.6,10,296.8,10,401.4c0,104.5,40.7,202.8,114.6,276.7c73.9,73.9,172.2,114.6,276.7,114.6c94.4,0,183.6-33.2,254.4-94c0.7,0.8,1.4,1.6,2.1,2.3l280,280c6,6,13.8,8.9,21.6,8.9c7.8,0,15.6-3,21.6-8.9C993,969.1,993,949.8,981.1,937.9z M401.4,731.7c-88.2,0-171.2-34.4-233.6-96.8C105.4,572.6,71,489.6,71,401.4c0-88.2,34.4-171.2,96.7-233.6C230.2,105.4,313.1,71,401.4,71c88.2,0,171.2,34.4,233.6,96.7c62.4,62.4,96.8,145.3,96.8,233.6c0,88.2-34.4,171.2-96.8,233.6C572.6,697.3,489.6,731.7,401.4,731.7z"/></g>
</svg>